REM DIRINDEX 1\3,1\2\4,1\2\5,1\2\6
REM DIRNAME folder01,folder02,folder03,folder04,folder05,folder06
TITLE ""
FILE "044.mp3" MP3
  TRACK 01 AUDIO
    TITLE "4:cjc137_1804"
    INDEX 01 00:00:00
  TRACK 02 AUDIO
    TITLE "0:"
    INDEX 01 00:01:13
  TRACK 03 AUDIO
    TITLE "6:cjc137_1805"
    INDEX 01 00:01:21
  TRACK 04 AUDIO
    TITLE "0:"
    INDEX 01 00:02:45
  TRACK 05 AUDIO
    TITLE "5:cjc137_1806"
    INDEX 01 00:02:49
  TRACK 06 AUDIO
    TITLE "0:"
    INDEX 01 00:03:64
  TRACK 07 AUDIO
    TITLE "4:cjc137_1807"
    INDEX 01 00:04:72
  TRACK 08 AUDIO
    TITLE "0:"
    INDEX 01 00:06:00
  TRACK 09 AUDIO
    TITLE "6:cjc137_1808"
    INDEX 01 00:06:12
  TRACK 10 AUDIO
    TITLE "0:"
    INDEX 01 00:07:13
  TRACK 11 AUDIO
    TITLE "5:cjc137_1809"
    INDEX 01 00:07:21
  TRACK 12 AUDIO
    TITLE "0:"
    INDEX 01 00:08:21
  TRACK 13 AUDIO
    TITLE "4:cjc137_1810"
    INDEX 01 00:09:36
  TRACK 14 AUDIO
    TITLE "0:"
    INDEX 01 00:10:59
  TRACK 15 AUDIO
    TITLE "6:cjc137_1811"
    INDEX 01 00:10:68
  TRACK 16 AUDIO
    TITLE "0:"
    INDEX 01 00:12:48
  TRACK 17 AUDIO
    TITLE "5:cjc137_1812"
    INDEX 01 00:12:56
  TRACK 18 AUDIO
    TITLE "0:"
    INDEX 01 00:14:07
  TRACK 19 AUDIO
    TITLE "4:cjc137_1813"
    INDEX 01 00:15:17
  TRACK 20 AUDIO
    TITLE "0:"
    INDEX 01 00:16:22
  TRACK 21 AUDIO
    TITLE "6:cjc137_1814"
    INDEX 01 00:16:28
  TRACK 22 AUDIO
    TITLE "0:"
    INDEX 01 00:17:23
  TRACK 23 AUDIO
    TITLE "5:cjc137_1815"
    INDEX 01 00:17:31
  TRACK 24 AUDIO
    TITLE "0:"
    INDEX 01 00:18:35
  TRACK 25 AUDIO
    TITLE "4:cjc137_1816"
    INDEX 01 00:19:44
  TRACK 26 AUDIO
    TITLE "0:"
    INDEX 01 00:20:57
  TRACK 27 AUDIO
    TITLE "6:cjc137_1817"
    INDEX 01 00:20:71
  TRACK 28 AUDIO
    TITLE "0:"
    INDEX 01 00:21:72
  TRACK 29 AUDIO
    TITLE "5:cjc137_1818"
    INDEX 01 00:22:05
  TRACK 30 AUDIO
    TITLE "0:"
    INDEX 01 00:23:18
  TRACK 31 AUDIO
    TITLE "4:cjc137_1819"
    INDEX 01 00:24:27
  TRACK 32 AUDIO
    TITLE "0:"
    INDEX 01 00:25:37
  TRACK 33 AUDIO
    TITLE "6:cjc137_1820"
    INDEX 01 00:25:43
  TRACK 34 AUDIO
    TITLE "0:"
    INDEX 01 00:26:71
  TRACK 35 AUDIO
    TITLE "5:cjc137_1821"
    INDEX 01 00:27:00
  TRACK 36 AUDIO
    TITLE "0:"
    INDEX 01 00:28:12
  TRACK 37 AUDIO
    TITLE "4:cjc137_1822"
    INDEX 01 00:29:17
  TRACK 38 AUDIO
    TITLE "0:"
    INDEX 01 00:30:24
  TRACK 39 AUDIO
    TITLE "6:cjc137_1823"
    INDEX 01 00:30:36
  TRACK 40 AUDIO
    TITLE "0:"
    INDEX 01 00:31:59
  TRACK 41 AUDIO
    TITLE "5:cjc137_1824"
    INDEX 01 00:31:67
  TRACK 42 AUDIO
    TITLE "0:"
    INDEX 01 00:32:74
  TRACK 43 AUDIO
    TITLE "4:cjc137_1825"
    INDEX 01 00:34:08
  TRACK 44 AUDIO
    TITLE "0:"
    INDEX 01 00:35:19
  TRACK 45 AUDIO
    TITLE "6:cjc137_1826"
    INDEX 01 00:35:25
  TRACK 46 AUDIO
    TITLE "0:"
    INDEX 01 00:36:19
  TRACK 47 AUDIO
    TITLE "5:cjc137_1827"
    INDEX 01 00:36:25
  TRACK 48 AUDIO
    TITLE "0:"
    INDEX 01 00:37:38
  TRACK 49 AUDIO
    TITLE "4:cjc137_1828"
    INDEX 01 00:38:43
  TRACK 50 AUDIO
    TITLE "0:"
    INDEX 01 00:39:64
  TRACK 51 AUDIO
    TITLE "6:cjc137_1829"
    INDEX 01 00:39:68
  TRACK 52 AUDIO
    TITLE "0:"
    INDEX 01 00:40:66
  TRACK 53 AUDIO
    TITLE "5:cjc137_1830"
    INDEX 01 00:40:73
  TRACK 54 AUDIO
    TITLE "0:"
    INDEX 01 00:42:19
  TRACK 55 AUDIO
    TITLE "4:cjc137_1831"
    INDEX 01 00:43:25
  TRACK 56 AUDIO
    TITLE "0:"
    INDEX 01 00:44:36
  TRACK 57 AUDIO
    TITLE "6:cjc137_1832"
    INDEX 01 00:44:42
  TRACK 58 AUDIO
    TITLE "0:"
    INDEX 01 00:45:39
  TRACK 59 AUDIO
    TITLE "5:cjc137_1833"
    INDEX 01 00:45:47
  TRACK 60 AUDIO
    TITLE "0:"
    INDEX 01 00:46:56
  TRACK 61 AUDIO
    TITLE "4:cjc137_1834"
    INDEX 01 00:47:64
  TRACK 62 AUDIO
    TITLE "0:"
    INDEX 01 00:48:67
  TRACK 63 AUDIO
    TITLE "6:cjc137_1835"
    INDEX 01 00:48:73
  TRACK 64 AUDIO
    TITLE "0:"
    INDEX 01 00:50:09
  TRACK 65 AUDIO
    TITLE "5:cjc137_1836"
    INDEX 01 00:50:15
  TRACK 66 AUDIO
    TITLE "0:"
    INDEX 01 00:51:16
  TRACK 67 AUDIO
    TITLE "4:cjc137_1837"
    INDEX 01 00:52:24
  TRACK 68 AUDIO
    TITLE "0:"
    INDEX 01 00:53:35
  TRACK 69 AUDIO
    TITLE "6:cjc137_1838"
    INDEX 01 00:53:45
  TRACK 70 AUDIO
    TITLE "0:"
    INDEX 01 00:54:48
  TRACK 71 AUDIO
    TITLE "5:cjc137_1839"
    INDEX 01 00:54:54
  TRACK 72 AUDIO
    TITLE "0:"
    INDEX 01 00:55:65
  TRACK 73 AUDIO
    TITLE "4:cjc137_1840"
    INDEX 01 00:56:74
  TRACK 74 AUDIO
    TITLE "0:"
    INDEX 01 00:58:11
  TRACK 75 AUDIO
    TITLE "6:cjc137_1841"
    INDEX 01 00:58:17
  TRACK 76 AUDIO
    TITLE "0:"
    INDEX 01 00:59:28
  TRACK 77 AUDIO
    TITLE "5:cjc137_1842"
    INDEX 01 00:59:32
  TRACK 78 AUDIO
    TITLE "0:"
    INDEX 01 01:00:45
  TRACK 79 AUDIO
    TITLE "4:cjc137_1843"
    INDEX 01 01:01:50
  TRACK 80 AUDIO
    TITLE "0:"
    INDEX 01 01:02:59
  TRACK 81 AUDIO
    TITLE "6:cjc137_1844"
    INDEX 01 01:02:65
  TRACK 82 AUDIO
    TITLE "0:"
    INDEX 01 01:03:63
  TRACK 83 AUDIO
    TITLE "5:cjc137_1845"
    INDEX 01 01:03:69
  TRACK 84 AUDIO
    TITLE "0:"
    INDEX 01 01:05:03
